<?xml version="1.0" encoding="UTF-8" standalone="no"?>
<svg
   xmlns:dc="http://purl.org/dc/elements/1.1/"
   xmlns:cc="http://creativecommons.org/ns#"
   xmlns:rdf="http://www.w3.org/1999/02/22-rdf-syntax-ns#"
   xmlns:svg="http://www.w3.org/2000/svg"
   xmlns="http://www.w3.org/2000/svg"
   xmlns:sodipodi="http://sodipodi.sourceforge.net/DTD/sodipodi-0.dtd"
   xmlns:inkscape="http://www.inkscape.org/namespaces/inkscape"
   width="599.722mm"
   height="269.875mm"
   viewBox="0 0 600 270"
   version="1.2"
   id="svg338"
   sodipodi:docname="kikouilloux.svg"
   inkscape:version="0.92.3 (2405546, 2018-03-11)">
  <metadata
     id="metadata342">
    <rdf:RDF>
      <cc:Work
         rdf:about="">
        <dc:format>image/svg+xml</dc:format>
        <dc:type
           rdf:resource="http://purl.org/dc/dcmitype/StillImage" />
        <dc:title>600</dc:title>
      </cc:Work>
    </rdf:RDF>
  </metadata>
  <sodipodi:namedview
     pagecolor="#ffffff"
     bordercolor="#666666"
     borderopacity="1"
     objecttolerance="10"
     gridtolerance="10"
     guidetolerance="10"
     inkscape:pageopacity="0"
     inkscape:pageshadow="2"
     inkscape:window-width="640"
     inkscape:window-height="480"
     id="namedview340"
     showgrid="false"
     inkscape:current-layer="svg338" />
  <title
     id="title2">600</title>
  <desc
     id="desc4">An SVG drawing created by the SVG Generator </desc>
  <defs
     id="defs6" />
  <path
     d="m 59.514428,44.691753 -0.28,-3 0.28,-1.2 h 8 v 15.2505 h 3 v -15.2505 h 8 l 0.28,1.2 -0.28,3 h -2.87 v 3 l -0.13,19.1009 -0.393,1.9462 -1.071,1.5893 -1.59,1.0716 -0.546,0.1103 v -2.5174 h -5.8 v 2.5174 l -0.5462,-0.1103 -1.5893,-1.0716 -1.0716,-1.5893 -0.3929,-1.9462 -0.13,-19.1009 v -3 h -2.87"
     id="path84"
     inkscape:connector-curvature="0"
     style="font-style:normal;font-weight:400;font-size:medium;font-family:'MS Shell Dlg 2';vector-effect:none;fill:none;fill-rule:evenodd;stroke:#0000ff;stroke-width:0.2;stroke-linecap:square;stroke-linejoin:bevel;stroke-opacity:1" />
  <path
     d="m 9.5144281,44.691753 -0.28,-3 0.28,-1.2 H 28.514428 l 0.28,1.2 -0.28,3 h -2.87 v 3 l -0.13,19.1009 -0.3929,1.9462 -1.0716,1.5893 -1.5893,1.0716 -0.5462,0.1103 v -2.5174 h -1.4 v -13.2504 h -3 v 13.2504 h -1.4 v 2.5174 l -0.5462,-0.1103 -1.5893,-1.0716 -1.0716,-1.5893 -0.3929,-1.9462 -0.13,-19.1009 v -3 H 9.5144281"
     id="path86"
     inkscape:connector-curvature="0"
     style="font-style:normal;font-weight:400;font-size:medium;font-family:'MS Shell Dlg 2';vector-effect:none;fill:none;fill-rule:evenodd;stroke:#0000ff;stroke-width:0.2;stroke-linecap:square;stroke-linejoin:bevel;stroke-opacity:1" />
  <path
     d="m 50.514428,18.191753 c 0,-6.3513 -5.1487,-11.5000002 -11.5,-11.5000002 -6.3513,0 -11.5,5.1487002 -11.5,11.5000002 0,6.3513 5.1487,11.5 11.5,11.5 6.3513,0 11.5,-5.1487 11.5,-11.5"
     id="path106"
     inkscape:connector-curvature="0"
     style="font-style:normal;font-weight:400;font-size:medium;font-family:'MS Shell Dlg 2';vector-effect:none;fill:none;fill-rule:evenodd;stroke:#0000ff;stroke-width:0.2;stroke-linecap:square;stroke-linejoin:bevel;stroke-opacity:1" />
  <path
     d="m 37.579428,16.756753 h -8.065 v 2.87 h 8.065 v 8.065 h 2.87 v -8.065 h 8.065 v -2.87 h -8.065 V 8.6917528 h -2.87 v 8.0650002"
     id="path108"
     inkscape:connector-curvature="0"
     style="font-style:normal;font-weight:400;font-size:medium;font-family:'MS Shell Dlg 2';vector-effect:none;fill:none;fill-rule:evenodd;stroke:#0000ff;stroke-width:0.2;stroke-linecap:square;stroke-linejoin:bevel;stroke-opacity:1" />
</svg>
