<?xml version="1.0" encoding="UTF-8" standalone="no"?>
<svg width="599.722mm" height="329.847mm"
 viewBox="0 0 600 330"
 xmlns="http://www.w3.org/2000/svg" xmlns:xlink="http://www.w3.org/1999/xlink"  version="1.2" baseProfile="tiny">
<title>600</title>
<desc>An SVG drawing created by the SVG Generator </desc>
<defs>
</defs>
<g fill="none" stroke="black" stroke-width="1" fill-rule="evenodd" stroke-linecap="square" stroke-linejoin="bevel" >

<g fill="none" stroke="#ff0000" stroke-opacity="1" stroke-width="0.5" stroke-linecap="square" stroke-linejoin="bevel" transform="matrix(1,0,0,1,0,0)"
font-family="MS Shell Dlg 2" font-size="8.25" font-weight="400" font-style="normal" 
>
<path vector-effect="none" fill-rule="evenodd" d="M220,85 L206.631,126.145 L171.631,151.574 L128.369,151.574 L93.3688,126.145 L80,85 L93.3688,43.855 L128.369,18.426 L171.631,18.426 L206.631,43.855 L220,85"/>
<path vector-effect="none" fill-rule="evenodd" d="M215,85 C215,79.4772 210.523,75 205,75 C199.477,75 195,79.4772 195,85 C195,90.5228 199.477,95 205,95 C210.523,95 215,90.5228 215,85 "/>
<path vector-effect="none" fill-rule="evenodd" d="M205.22,101.365 L210.926,103.219 L209.999,106.072 L204.293,104.218 L205.22,101.365"/>
<path vector-effect="none" fill-rule="evenodd" d="M191.905,97.0385 L197.611,98.8926 L196.684,101.746 L190.978,99.8917 L191.905,97.0385"/>
<path vector-effect="none" fill-rule="evenodd" d="M204.496,117.328 C204.496,111.805 200.019,107.328 194.496,107.328 C188.973,107.328 184.496,111.805 184.496,117.328 C184.496,122.851 188.973,127.328 194.496,127.328 C200.019,127.328 204.496,122.851 204.496,117.328 "/>
<path vector-effect="none" fill-rule="evenodd" d="M185.055,130.697 L188.581,135.551 L186.154,137.314 L182.628,132.46 L185.055,130.697"/>
<path vector-effect="none" fill-rule="evenodd" d="M176.826,119.37 L180.352,124.224 L177.925,125.988 L174.399,121.134 L176.826,119.37"/>
<path vector-effect="none" fill-rule="evenodd" d="M176.996,137.308 C176.996,131.785 172.519,127.308 166.996,127.308 C161.473,127.308 156.996,131.785 156.996,137.308 C156.996,142.831 161.473,147.308 166.996,147.308 C172.519,147.308 176.996,142.831 176.996,137.308 "/>
<path vector-effect="none" fill-rule="evenodd" d="M151.5,142.574 L151.5,148.574 L148.5,148.574 L148.5,142.574 L151.5,142.574"/>
<path vector-effect="none" fill-rule="evenodd" d="M151.5,128.574 L151.5,134.574 L148.5,134.574 L148.5,128.574 L151.5,128.574"/>
<path vector-effect="none" fill-rule="evenodd" d="M143.004,137.308 C143.004,131.785 138.527,127.308 133.004,127.308 C127.481,127.308 123.004,131.785 123.004,137.308 C123.004,142.831 127.481,147.308 133.004,147.308 C138.527,147.308 143.004,142.831 143.004,137.308 "/>
<path vector-effect="none" fill-rule="evenodd" d="M117.372,132.46 L113.846,137.314 L111.419,135.551 L114.945,130.697 L117.372,132.46"/>
<path vector-effect="none" fill-rule="evenodd" d="M125.601,121.134 L122.075,125.988 L119.648,124.224 L123.174,119.37 L125.601,121.134"/>
<path vector-effect="none" fill-rule="evenodd" d="M115.504,117.328 C115.504,111.805 111.027,107.328 105.504,107.328 C99.9812,107.328 95.5041,111.805 95.5041,117.328 C95.5041,122.851 99.9812,127.328 105.504,127.328 C111.027,127.328 115.504,122.851 115.504,117.328 "/>
<path vector-effect="none" fill-rule="evenodd" d="M95.7074,104.218 L90.0011,106.072 L89.074,103.219 L94.7804,101.365 L95.7074,104.218"/>
<path vector-effect="none" fill-rule="evenodd" d="M109.022,99.8917 L103.316,101.746 L102.389,98.8926 L108.095,97.0385 L109.022,99.8917"/>
<path vector-effect="none" fill-rule="evenodd" d="M105,85 C105,79.4772 100.523,75 95,75 C89.4772,75 85,79.4772 85,85 C85,90.5228 89.4772,95 95,95 C100.523,95 105,90.5228 105,85 "/>
<path vector-effect="none" fill-rule="evenodd" d="M94.7804,68.6353 L89.074,66.7812 L90.0011,63.928 L95.7074,65.7821 L94.7804,68.6353"/>
<path vector-effect="none" fill-rule="evenodd" d="M108.095,72.9615 L102.389,71.1074 L103.316,68.2542 L109.022,70.1083 L108.095,72.9615"/>
<path vector-effect="none" fill-rule="evenodd" d="M115.504,52.6718 C115.504,47.149 111.027,42.6718 105.504,42.6718 C99.9812,42.6718 95.5041,47.149 95.5041,52.6718 C95.5041,58.1947 99.9812,62.6718 105.504,62.6718 C111.027,62.6718 115.504,58.1947 115.504,52.6718 "/>
<path vector-effect="none" fill-rule="evenodd" d="M114.945,39.3034 L111.419,34.4493 L113.846,32.6859 L117.372,37.54 L114.945,39.3034"/>
<path vector-effect="none" fill-rule="evenodd" d="M123.174,50.6296 L119.648,45.7755 L122.075,44.0121 L125.601,48.8663 L123.174,50.6296"/>
<path vector-effect="none" fill-rule="evenodd" d="M143.004,32.6919 C143.004,27.169 138.527,22.6919 133.004,22.6919 C127.481,22.6919 123.004,27.169 123.004,32.6919 C123.004,38.2147 127.481,42.6919 133.004,42.6919 C138.527,42.6919 143.004,38.2147 143.004,32.6919 "/>
<path vector-effect="none" fill-rule="evenodd" d="M148.5,27.426 L148.5,21.426 L151.5,21.426 L151.5,27.426 L148.5,27.426"/>
<path vector-effect="none" fill-rule="evenodd" d="M148.5,41.426 L148.5,35.426 L151.5,35.426 L151.5,41.426 L148.5,41.426"/>
<path vector-effect="none" fill-rule="evenodd" d="M176.996,32.6919 C176.996,27.169 172.519,22.6919 166.996,22.6919 C161.473,22.6919 156.996,27.169 156.996,32.6919 C156.996,38.2147 161.473,42.6919 166.996,42.6919 C172.519,42.6919 176.996,38.2147 176.996,32.6919 "/>
<path vector-effect="none" fill-rule="evenodd" d="M182.628,37.54 L186.154,32.6859 L188.581,34.4493 L185.055,39.3034 L182.628,37.54"/>
<path vector-effect="none" fill-rule="evenodd" d="M174.399,48.8663 L177.925,44.0121 L180.352,45.7755 L176.826,50.6296 L174.399,48.8663"/>
<path vector-effect="none" fill-rule="evenodd" d="M204.496,52.6718 C204.496,47.149 200.019,42.6718 194.496,42.6718 C188.973,42.6718 184.496,47.149 184.496,52.6718 C184.496,58.1947 188.973,62.6718 194.496,62.6718 C200.019,62.6718 204.496,58.1947 204.496,52.6718 "/>
<path vector-effect="none" fill-rule="evenodd" d="M204.293,65.7821 L209.999,63.928 L210.926,66.7812 L205.22,68.6353 L204.293,65.7821"/>
<path vector-effect="none" fill-rule="evenodd" d="M190.978,70.1083 L196.684,68.2542 L197.611,71.1074 L191.905,72.9615 L190.978,70.1083"/>
</g>

<g fill="none" stroke="#0000ff" stroke-opacity="1" stroke-width="0.5" stroke-linecap="square" stroke-linejoin="bevel" transform="matrix(1,0,0,1,0,0)"
font-family="MS Shell Dlg 2" font-size="8.25" font-weight="400" font-style="normal" 
>
<path vector-effect="none" fill-rule="evenodd" d="M190.672,23.0285 L190.672,146.971"/>
<path vector-effect="none" fill-rule="evenodd" d="M244,10 L255,10 L255,7 L265,7 L265,10 L275,10 L275,7 L285,7 L285,10 L295,10 L295,7 L305,7 L305,10 L315,10 L315,7 L325,7 L325,10 L335,10 L335,7 L345,7 L345,10 L355,10 L355,7 L365,7 L365,10 L375,10 L375,7 L385,7 L385,10 L396,10 L396,20 L399,20 L399,30 L396,30 L396,40 L399,40 L399,50 L396,50 L396,60 L399,60 L399,70 L396,70 L396,80 L399,80 L399,90 L396,90 L396,100 L399,100 L399,110 L396,110 L396,120 L399,120 L399,130 L396,130 L396,140 L399,140 L399,150 L396,150 L396,160 L385,160 L385,163 L375,163 L375,160 L365,160 L365,163 L355,163 L355,160 L345,160 L345,163 L335,163 L335,160 L325,160 L325,163 L315,163 L315,160 L305,160 L305,163 L295,163 L295,160 L285,160 L285,163 L275,163 L275,160 L265,160 L265,163 L255,163 L255,160 L244,160 L244,150 L241,150 L241,140 L244,140 L244,130 L241,130 L241,120 L244,120 L244,110 L241,110 L241,100 L244,100 L244,90 L241,90 L241,80 L244,80 L244,70 L241,70 L241,60 L244,60 L244,50 L241,50 L241,40 L244,40 L244,30 L241,30 L241,20 L244,20 L244,10"/>
<path vector-effect="none" fill-rule="evenodd" d="M402,10 L417.836,10 L417.836,7 L427.836,7 L427.836,10 L437.836,10 L437.836,7 L447.836,7 L447.836,10 L457.836,10 L457.836,7 L467.836,7 L467.836,10 L477.836,10 L477.836,7 L487.836,7 L487.836,10 L497.836,10 L497.836,7 L507.836,7 L507.836,10 L523.672,10 L523.672,20 L520.672,20 L520.672,30 L523.672,30 L523.672,40 L520.672,40 L520.672,50 L523.672,50 L523.672,60 L520.672,60 L520.672,70 L523.672,70 L523.672,80 L520.672,80 L520.672,90 L523.672,90 L523.672,100 L520.672,100 L520.672,110 L523.672,110 L523.672,120 L520.672,120 L520.672,130 L523.672,130 L523.672,140 L520.672,140 L520.672,150 L523.672,150 L523.672,160 L507.836,160 L507.836,163 L497.836,163 L497.836,160 L487.836,160 L487.836,163 L477.836,163 L477.836,160 L467.836,160 L467.836,163 L457.836,163 L457.836,160 L447.836,160 L447.836,163 L437.836,163 L437.836,160 L427.836,160 L427.836,163 L417.836,163 L417.836,160 L402,160 L402,150 L405,150 L405,140 L402,140 L402,130 L405,130 L405,120 L402,120 L402,110 L405,110 L405,100 L402,100 L402,90 L405,90 L405,80 L402,80 L402,70 L405,70 L405,60 L402,60 L402,50 L405,50 L405,40 L402,40 L402,30 L405,30 L405,20 L402,20 L402,10"/>
<path vector-effect="none" fill-rule="evenodd" d="M402,166 L417.836,166 L417.836,169 L427.836,169 L427.836,166 L437.836,166 L437.836,169 L447.836,169 L447.836,166 L457.836,166 L457.836,169 L467.836,169 L467.836,166 L477.836,166 L477.836,169 L487.836,169 L487.836,166 L497.836,166 L497.836,169 L507.836,169 L507.836,166 L523.672,166 L523.672,180 L520.672,180 L520.672,190 L523.672,190 L523.672,200 L520.672,200 L520.672,210 L523.672,210 L523.672,220 L520.672,220 L520.672,230 L523.672,230 L523.672,240 L520.672,240 L520.672,250 L523.672,250 L523.672,260 L520.672,260 L520.672,270 L523.672,270 L523.672,280 L520.672,280 L520.672,290 L523.672,290 L523.672,300 L520.672,300 L520.672,310 L523.672,310 L523.672,324 L507.836,324 L507.836,321 L497.836,321 L497.836,324 L487.836,324 L487.836,321 L477.836,321 L477.836,324 L467.836,324 L467.836,321 L457.836,321 L457.836,324 L447.836,324 L447.836,321 L437.836,321 L437.836,324 L427.836,324 L427.836,321 L417.836,321 L417.836,324 L402,324 L402,310 L405,310 L405,300 L402,300 L402,290 L405,290 L405,280 L402,280 L402,270 L405,270 L405,260 L402,260 L402,250 L405,250 L405,240 L402,240 L402,230 L405,230 L405,220 L402,220 L402,210 L405,210 L405,200 L402,200 L402,190 L405,190 L405,180 L402,180 L402,166"/>
</g>

<g fill="none" stroke="#008000" stroke-opacity="1" stroke-width="0.5" stroke-linecap="square" stroke-linejoin="bevel" transform="matrix(1,0,0,1,0,0)"
font-family="MS Shell Dlg 2" font-size="8.25" font-weight="400" font-style="normal" 
>
<path vector-effect="none" fill-rule="evenodd" d="M270,23.0285 L370,23.0285 L370,30 L373,30 L373,40 L370,40 L370,50 L373,50 L373,60 L370,60 L370,70 L373,70 L373,80 L370,80 L370,90 L373,90 L373,100 L370,100 L370,110 L373,110 L373,120 L370,120 L370,130 L373,130 L373,140 L370,140 L370,146.971 L270,146.971 L270,140 L267,140 L267,130 L270,130 L270,120 L267,120 L267,110 L270,110 L270,100 L267,100 L267,90 L270,90 L270,80 L267,80 L267,70 L270,70 L270,60 L267,60 L267,50 L270,50 L270,40 L267,40 L267,30 L270,30 L270,23.0285"/>
<path vector-effect="none" fill-rule="evenodd" d="M157.5,85 C157.5,80.8579 154.142,77.5 150,77.5 C145.858,77.5 142.5,80.8579 142.5,85 C142.5,89.1421 145.858,92.5 150,92.5 C154.142,92.5 157.5,89.1421 157.5,85 "/>
<path vector-effect="none" fill-rule="evenodd" d="M152,85 C152,83.8954 151.105,83 150,83 C148.895,83 148,83.8954 148,85 C148,86.1046 148.895,87 150,87 C151.105,87 152,86.1046 152,85 "/>
<path vector-effect="none" fill-rule="evenodd" d="M75,23.0285 L190.672,23.0285 L190.672,30 L193.672,30 L193.672,40 L190.672,40 L190.672,50 L193.672,50 L193.672,60 L190.672,60 L190.672,70 L193.672,70 L193.672,80 L190.672,80 L190.672,90 L193.672,90 L193.672,100 L190.672,100 L190.672,110 L193.672,110 L193.672,120 L190.672,120 L190.672,130 L193.672,130 L193.672,140 L190.672,140 L190.672,146.971 L75,146.971 L75,140 L72,140 L72,130 L75,130 L75,120 L72,120 L72,110 L75,110 L75,100 L72,100 L72,90 L75,90 L75,80 L72,80 L72,70 L75,70 L75,60 L72,60 L72,50 L75,50 L75,40 L72,40 L72,30 L75,30 L75,23.0285"/>
<path vector-effect="none" fill-rule="evenodd" d="M286.25,28.0285 L283.25,27.7485 L282.05,28.0285 L282.05,29.8285 L286.25,29.8285 L282.05,30.3885 L282.05,31.6685 L286.25,32.2285 L282.05,32.2285 L282.05,34.0285 L283.25,34.3085 L286.25,34.0285 L286.25,42.0285 L283.25,41.7485 L282.05,42.0285 L282.05,43.8285 L286.25,43.8285 L282.05,44.3885 L282.05,45.6685 L286.25,46.2285 L282.05,46.2285 L282.05,48.0285 L283.25,48.3085 L286.25,48.0285 L353.75,48.0285 L356.75,48.3085 L357.95,48.0285 L357.95,46.2285 L353.75,46.2285 L357.95,45.6685 L357.95,44.3885 L353.75,43.8285 L357.95,43.8285 L357.95,42.0285 L356.75,41.7485 L353.75,42.0285 L353.75,34.0285 L356.75,34.3085 L357.95,34.0285 L357.95,32.2285 L353.75,32.2285 L357.95,31.6685 L357.95,30.3885 L353.75,29.8285 L357.95,29.8285 L357.95,28.0285 L356.75,27.7485 L353.75,28.0285 L286.25,28.0285"/>
</g>
</g>
</svg>
